<svg id="图层_1" data-name="图层 1" xmlns="http://www.w3.org/2000/svg" viewBox="0 0 639.86 337.46"><defs><style>.cls-1{fill:#fff;}.cls-1,.cls-2,.cls-3,.cls-6,.cls-7,.cls-8,.cls-9{stroke:#231f20;}.cls-1,.cls-14,.cls-15,.cls-8,.cls-9{stroke-miterlimit:10;}.cls-1,.cls-2{stroke-width:5.67px;}.cls-12,.cls-13,.cls-14,.cls-15,.cls-2,.cls-3,.cls-6,.cls-7,.cls-8,.cls-9{fill:none;}.cls-12,.cls-13,.cls-2,.cls-3,.cls-6,.cls-7{stroke-linecap:round;stroke-linejoin:round;}.cls-3{stroke-width:2.83px;}.cls-10,.cls-4{font-size:36px;font-family:ShiShangZhongHei, ShiShangZhongHei;}.cls-4,.cls-5{fill:#231f20;}.cls-11,.cls-5{font-size:11px;font-family:MicrosoftYaHei, Microsoft YaHei;}.cls-12,.cls-6{stroke-width:5.5px;}.cls-13,.cls-15,.cls-7,.cls-9{stroke-width:3px;}.cls-14,.cls-8{stroke-width:5px;}.cls-10,.cls-11{fill:#139bd7;}.cls-12,.cls-13,.cls-14,.cls-15{stroke:#139bd7;}</style></defs><title>辉聚AB</title><circle class="cls-1" cx="30.26" cy="47.05" r="6.61"/><circle class="cls-1" cx="42.63" cy="9.44" r="6.61"/><circle class="cls-1" cx="100.64" cy="52.14" r="6.61"/><circle class="cls-1" cx="94.06" cy="15.2" r="6.61"/><line class="cls-2" x1="41.31" y1="15.92" x2="31.7" y2="40.45"/><line class="cls-2" x1="38.15" y1="45.53" x2="87.15" y2="20.5"/><line class="cls-3" x1="62.68" y1="24.4" x2="47.74" y2="13.04"/><line class="cls-3" x1="94.2" y1="48.39" x2="76.29" y2="34.77"/><line class="cls-2" x1="99.64" y1="45.53" x2="95.06" y2="21.81"/><circle class="cls-1" cx="27.46" cy="270.52" r="6.61"/><circle class="cls-1" cx="39.83" cy="232.91" r="6.61"/><circle class="cls-1" cx="97.84" cy="275.6" r="6.61"/><circle class="cls-1" cx="91.27" cy="238.67" r="6.61"/><line class="cls-2" x1="38.51" y1="239.38" x2="28.9" y2="263.91"/><line class="cls-2" x1="35.35" y1="268.99" x2="84.35" y2="243.97"/><line class="cls-3" x1="59.88" y1="247.87" x2="44.95" y2="236.5"/><line class="cls-3" x1="91.4" y1="271.86" x2="73.49" y2="258.23"/><line class="cls-2" x1="96.84" y1="268.99" x2="92.27" y2="245.28"/><line class="cls-2" x1="2.83" y1="324.58" x2="113.72" y2="334.62"/><text class="cls-4" transform="translate(125.36 33.61)">鼎优数据</text><text class="cls-5" transform="translate(125.36 55.68)">数据驱动业务，分析引领增长</text><text class="cls-4" transform="translate(125.36 142.76)">鼎优数据</text><text class="cls-5" transform="translate(125.36 164.83)">数据驱动业务，分析引领增长</text><line class="cls-6" x1="52.71" y1="122.9" x2="30.26" y2="152.18"/><line class="cls-7" x1="64.92" y1="143.79" x2="32.36" y2="156.71"/><line class="cls-6" x1="73.21" y1="163.2" x2="33.22" y2="160.95"/><line class="cls-6" x1="77.89" y1="156.06" x2="62.65" y2="123.83"/><line class="cls-7" x1="87.34" y1="131.42" x2="64.92" y2="120.92"/><line class="cls-7" x1="91.23" y1="137.23" x2="83.44" y2="156.58"/><circle class="cls-8" cx="26.17" cy="159.08" r="6.64"/><circle class="cls-8" cx="58.28" cy="117.61" r="6.64"/><circle class="cls-8" cx="80.86" cy="162.7" r="6.64"/><circle class="cls-9" cx="91.23" cy="133.54" r="3.69"/><line class="cls-7" x1="87.34" y1="134.67" x2="76.94" y2="138.84"/><text class="cls-10" transform="translate(495.86 142.76)">鼎优数据</text><text class="cls-11" transform="translate(495.86 164.83)">数据驱动业务，分析引领增长</text><line class="cls-12" x1="423.21" y1="122.9" x2="400.76" y2="152.18"/><line class="cls-13" x1="435.42" y1="143.79" x2="402.86" y2="156.71"/><line class="cls-12" x1="443.71" y1="163.2" x2="403.72" y2="160.95"/><line class="cls-12" x1="448.39" y1="156.06" x2="433.15" y2="123.83"/><line class="cls-13" x1="457.84" y1="131.42" x2="435.42" y2="120.92"/><line class="cls-13" x1="461.73" y1="137.23" x2="453.94" y2="156.58"/><circle class="cls-14" cx="396.67" cy="159.08" r="6.64"/><circle class="cls-14" cx="428.78" cy="117.61" r="6.64"/><circle class="cls-14" cx="451.36" cy="162.7" r="6.64"/><circle class="cls-15" cx="461.73" cy="133.54" r="3.69"/><line class="cls-13" x1="457.84" y1="134.67" x2="447.44" y2="138.84"/></svg>