<?xml version="1.0" encoding="utf-8"?>
<!-- Generator: Adobe Illustrator 22.0.0, SVG Export Plug-In . SVG Version: 6.00 Build 0)  -->
<svg version="1.1" id="图层_1" xmlns="http://www.w3.org/2000/svg" xmlns:xlink="http://www.w3.org/1999/xlink" x="0px" y="0px"
	 viewBox="0 0 262.9 75" style="enable-background:new 0 0 262.9 75;" xml:space="preserve">
<style type="text/css">
	.st0{enable-background:new    ;}
	.st1{fill:#139BD7;}
	.st2{fill:none;stroke:#139BD7;stroke-width:5.5;stroke-linecap:round;stroke-linejoin:round;}
	.st3{fill:none;stroke:#139BD7;stroke-width:3;stroke-linecap:round;stroke-linejoin:round;}
	.st4{fill:none;stroke:#139BD7;stroke-width:5;stroke-miterlimit:10;}
	.st5{fill:none;stroke:#139BD7;stroke-width:3;stroke-miterlimit:10;}
</style>
<title>辉聚AB</title>
<g class="st0">
	<path class="st1" d="M115,43.9v-3.3c1.2-0.1,2-1.4,2.3-4H115v-3.3h11v-0.6c0-0.6-0.3-0.9-0.9-0.9h-6.4c-1.1,0-1.9-0.4-2.6-1.2
		c-0.4-0.5-0.7-1.2-0.7-2l0-14.7h3.3l0,13.8c0,0.3,0.1,0.6,0.4,0.9c0.3,0.3,0.6,0.4,0.8,0.4h6.3c1.1,0,1.8,0.2,2.2,0.5
		c0.4,0.4,0.7,1.1,0.7,2.1v12.2H126v-7.3h-5.6C119.9,41.3,118.1,43.7,115,43.9z M120.8,24.8v-8.5c0-0.9,0.2-1.5,0.5-1.8
		c0.4-0.4,1.3-0.7,2.7-0.7h14.7c1.1,0,1.9,0.2,2.3,0.6c0.4,0.4,0.7,1.2,0.7,2.3v7.7c0,1.1-0.2,1.9-0.5,2.3c-0.4,0.4-1,0.7-1.9,0.7
		H124c-1,0-1.6-0.1-2-0.2C121.2,27,120.8,26.2,120.8,24.8z M124.1,17.6h14.2v-0.7c0-0.6-0.3-0.8-0.9-0.8h-12.2
		c-0.5,0-0.8,0.1-0.9,0.2c-0.1,0.1-0.1,0.3-0.1,0.6V17.6z M124.1,21.4h14.2v-1.5h-14.2V21.4z M138.3,23.7h-14.2v0.5
		c0,0.3,0,0.5,0.1,0.7c0.1,0.1,0.5,0.2,1,0.2h12.5c0.4,0,0.5-0.2,0.5-0.6V23.7z M133.5,43.9V31.8c0-1.3,0.2-2.1,0.7-2.4
		c0.4-0.3,1.1-0.4,2.2-0.4h6.1c0.4,0,0.7-0.2,1-0.5c0.3-0.3,0.4-0.6,0.4-1V14h3.3v14.6c0,1.1-0.4,1.9-1.1,2.5
		c-0.6,0.5-1.3,0.8-2.2,0.8h-6.1c-0.5,0-0.8,0-0.9,0.1c-0.2,0.1-0.3,0.3-0.3,0.7v0.7h10.9v3.3h-1.4v7.3h-3.3v-7.3h-6.3v7.3H133.5z"
		/>
	<path class="st1" d="M150.9,27.6v-4.2c1.4-1,2.6-2.3,3.4-4.1c0.6-1.2,1.2-3.1,1.8-5.5h3.7c-0.3,1.5-0.6,2.7-0.9,3.6
		c-0.2,0.9-0.7,1.9-1.2,3.2l0,23h-3.4V25.5C153.4,26.2,152.3,26.9,150.9,27.6z M159.4,43.8v-3.3c1.5-1,2.8-2.4,3.6-4.3
		c0.7-1.4,1.2-3.4,1.6-5.9L166,22h-6.5v-3.3h7.1l0.8-4.9h3.3l-0.8,4.9h13.3V22h-13.9l-1.5,9.5c-0.5,3.1-1.3,5.7-2.4,7.5
		c-1.1,1.8-2.3,3.1-3.7,4C161.1,43.3,160.4,43.6,159.4,43.8z M172.4,24h3.3l0,14c0,1,0.2,1.7,0.7,2.1c0.2,0.1,0.4,0.2,0.5,0.3
		s0.5,0,1,0h5.2v3.3H178c-2.4,0-4-0.8-5-2.4c-0.4-0.7-0.7-1.8-0.7-3.1L172.4,24z M176.2,17.2v-3.3h7v3.3H176.2z"/>
	<path class="st1" d="M187,22.4v-3.3h7.1V14h3.3v5.2h6.2v3.3h-6.2v6.8h-3.3v-6.8H187z M187,43.8V41h1.4c1.1,0,2.5-0.4,4.3-1.2
		l-2.4-1.4c-1.2-0.7-1.9-1.6-2.1-2.7c0-0.3-0.1-0.7-0.1-1.3H187v-2.9h1.2v-1.4h3.1v1.4h8.5v-1.4h3.1v1.4h1.2v2.9h-1.2v0.5
		c0,1-0.3,1.9-0.8,2.4c-0.3,0.3-1.4,1.1-3.4,2.2c1.3,0.7,2.3,1.1,3,1.3c0.6,0.2,1.4,0.3,2.2,0.3c0.1,0,0.3,0,0.5,0v2.7h-1.7
		c-1.7,0-2.9-0.2-3.9-0.5c-0.2-0.1-1.2-0.6-3.1-1.7c-0.3,0.1-0.8,0.4-1.5,0.8c-1.4,0.7-2.3,1.1-3,1.2
		C190.3,43.8,188.9,43.8,187,43.8z M187.7,17.4l0-3.4h3.2v3.4H187.7z M187.7,29.5v-3.2c0.5-0.1,0.8-0.4,0.8-0.9v-1.4h3.3v1.4
		c0,1.1-0.3,2-1,2.8C190,29,189,29.4,187.7,29.5z M195.6,37.8l3-1.9c0.7-0.4,1-0.9,1.1-1.5h-8.4c0,0.4,0.2,0.7,0.4,1
		c0.2,0.3,0.8,0.7,1.7,1.2L195.6,37.8z M199.6,23.9h3.2v1.4c0,0.5,0.3,0.8,0.8,0.9v3.2c-1.2-0.1-2.2-0.5-3-1.3
		c-0.8-0.8-1.1-1.8-1.1-3V23.9z M200.4,17.4l0-3.4h3.2v3.4H200.4z M204.2,24v-3.3c0.8-0.1,1.3-0.7,1.8-1.8c0.3-0.7,0.8-2.4,1.4-5.2
		h3.3l-0.5,2.1h9.3v3.3H218l-0.2,5.5c-0.1,2.6-0.4,5-1,7.2c-0.4,1.8-1.1,3.5-2.1,5.2c1.1,1.2,2.7,2.3,4.7,3.3v3.3
		c-2.6-0.9-4.9-2.2-6.7-4.1c-1.3,1.1-2.4,2-3.4,2.5c-0.7,0.4-1.9,0.9-3.7,1.5v-3.3c1.9-0.8,3.5-2,5-3.4c-1.1-2-2-4-2.5-6.1
		c-0.3-1.1-0.8-3.4-1.5-7.1h3.2c0.6,2.9,1,4.7,1.1,5.4c0.4,1.5,0.9,3.1,1.7,4.9c0.6-1.3,1-2.6,1.3-3.9c0.3-1.7,0.5-3.5,0.5-5.6
		l0.2-5.3h-5.3c-0.6,1.6-1.3,2.7-2.1,3.4C206.6,23.2,205.6,23.7,204.2,24z"/>
	<path class="st1" d="M222.8,33.5v-3.4c0.9-0.2,1.6-0.3,2-0.5c0.5-0.2,1.1-0.5,1.9-1v-8.4H223v-3.4h3.9V14h3.3v2.9h2.9v3.4h-2.9v6.2
		c0.8-0.4,1.8-0.8,2.9-1.2v3.4c-1.1,0.4-2.1,0.9-2.9,1.5V39c0,1.8-0.6,3.1-1.8,3.9c-0.8,0.6-1.9,0.8-3.2,0.8h-1.7v-3.3h0.8
		c1.8,0,2.6-0.7,2.6-2v-6.2c-0.8,0.4-1.4,0.6-1.7,0.7C224.7,33.1,223.9,33.3,222.8,33.5z M232.7,43.9v-3.3c0.6-0.2,1.1-0.6,1.4-1
		c0.2-0.4,0.4-1,0.4-1.8V18.9c0-1.5,0.2-2.6,0.5-3.2c0.8-1.2,1.9-1.8,3.3-1.8h13.9c2.2,0,3.3,1.2,3.3,3.5v3.8c0,0.9-0.3,1.6-0.8,2.1
		c-0.6,0.6-1.5,0.9-2.8,0.9h-3v2.7h6.8v3.3h-6.8v2.7h2.5c2.8,0,4.2,1.1,4.2,3.3v3.9c0,1.2-0.3,2.1-0.9,2.6c-0.7,0.7-1.6,1-2.8,1H243
		c-1.4,0-2.5-0.3-3.1-1c-0.6-0.6-0.9-1.5-0.9-2.9v-3.2c0-1.5,0.4-2.6,1.3-3.2c0.6-0.4,1.7-0.6,3.3-0.6h1.9v-2.7h-6.9v-3.3h6.9v-2.7
		h-7.8v14c0,1.7-0.6,3.1-1.8,4.2C235.1,43.2,234.1,43.7,232.7,43.9z M237.7,21h13c0.8,0,1.2-0.2,1.4-0.5c0.1-0.2,0.2-0.4,0.2-0.7
		v-1.5c0-0.7-0.4-1.1-1.3-1.1h-11c-1,0-1.6,0.1-1.8,0.3c-0.3,0.3-0.4,0.7-0.4,1.3V21z M243.4,40.4h7c0.9,0,1.4-0.1,1.6-0.4
		c0.1-0.2,0.2-0.6,0.2-1.3v-1.3c0-0.8-0.3-1.2-1-1.2h-7.6c-0.4,0-0.7,0.1-0.9,0.2c-0.2,0.2-0.3,0.6-0.3,1v1.9
		C242.3,40,242.7,40.4,243.4,40.4z"/>
</g>
<g class="st0">
	<path class="st1" d="M113.5,59.2h1.6c0.2-0.3,0.3-0.6,0.5-0.8l0.8,0.2c-0.1,0.2-0.2,0.4-0.3,0.6h2.6v0.7c-0.3,0.7-0.7,1.3-1.2,1.8
		c0.4,0.2,0.8,0.4,1.2,0.6l-0.5,0.7c-0.4-0.3-0.9-0.5-1.4-0.8c-0.8,0.6-1.8,1-3.1,1.4c-0.1-0.2-0.2-0.5-0.4-0.8c1-0.2,1.9-0.6,2.7-1
		c-0.6-0.3-1.3-0.6-1.9-1c0.2-0.3,0.5-0.7,0.7-1h-1.2V59.2z M113.6,55.6h2.5v-2.4h0.8v2.4h2.1v0.7h-2.1v0.7l0.3-0.4
		c0.7,0.5,1.2,0.9,1.7,1.3l-0.5,0.6c-0.4-0.4-0.9-0.8-1.5-1.3v1.2H116v-1.5c-0.7,0.7-1.4,1.3-2.3,1.8c-0.1-0.2-0.3-0.4-0.5-0.7
		c0.9-0.5,1.7-1.1,2.5-1.8h-2.2V55.6z M113.8,53.9l0.6-0.4c0.3,0.4,0.7,0.8,1,1.3l-0.7,0.5C114.5,54.7,114.2,54.3,113.8,53.9z
		 M115.1,60.7c0.5,0.2,1,0.5,1.6,0.7c0.5-0.4,0.9-0.9,1.2-1.5h-2.2C115.4,60.2,115.2,60.5,115.1,60.7z M118.4,53.4l0.7,0.4
		c-0.4,0.5-0.8,1-1.2,1.4c-0.2-0.1-0.4-0.3-0.6-0.5C117.7,54.4,118.1,53.9,118.4,53.4z M120.4,53l0.9,0.1c-0.2,0.7-0.3,1.3-0.5,1.9
		h3.3v0.7h-0.7c-0.2,2.1-0.6,3.8-1.4,5c0.6,0.8,1.3,1.4,2.2,1.9c-0.2,0.3-0.4,0.6-0.6,0.8c-0.9-0.6-1.6-1.2-2.2-2
		c-0.7,0.8-1.4,1.5-2.4,2.1c-0.2-0.2-0.4-0.4-0.6-0.7c1-0.7,1.8-1.4,2.4-2.2c-0.6-1-1-2.2-1.1-3.5c-0.2,0.3-0.3,0.5-0.5,0.7
		c-0.1-0.2-0.3-0.4-0.5-0.7C119.5,56.2,120.1,54.8,120.4,53z M122.5,55.9h-2c0,0.1-0.1,0.2-0.1,0.3c0.1,1.5,0.5,2.8,1.1,3.9
		C122,59,122.3,57.6,122.5,55.9z"/>
	<path class="st1" d="M124.4,58.8c0.5-0.1,1-0.3,1.5-0.4v-2.5h-1.4v-0.8h1.4v-2.1h0.8v2.1h1.2v0.8h-1.2v2.2c0.3-0.1,0.7-0.2,1-0.3
		c0,0.3,0,0.6,0.1,0.8c-0.4,0.1-0.7,0.2-1.1,0.3v3.2c0,0.8-0.4,1.2-1.1,1.2c-0.2,0-0.6,0-1,0c0-0.3-0.1-0.6-0.1-0.9
		c0.4,0,0.7,0.1,0.9,0.1c0.3,0,0.5-0.2,0.5-0.5v-2.8c-0.5,0.2-0.9,0.3-1.4,0.5L124.4,58.8z M129.2,59.9h2.2v-1.4h-2.5
		c-0.1,2.2-0.6,3.9-1.5,5.1c-0.2-0.2-0.4-0.4-0.6-0.7c0.9-1.1,1.3-2.8,1.3-5.1v-4.2h6.3v3.1h-0.8v-0.3h-4.8v1.3h2.5v-1.1h0.8v1.1
		h2.8v0.7h-2.8v1.4h2.2v3.6h-0.8v-0.6H130v0.6h-0.8V59.9z M133.7,54.4h-4.8v1.4h4.8V54.4z M133.6,60.6H130v1.6h3.7V60.6z"/>
	<path class="st1" d="M135.3,60.5c0.6-0.1,1.6-0.4,2.9-0.8c0,0.3,0,0.6,0.1,0.8c-0.5,0.2-1.5,0.4-2.8,0.8L135.3,60.5z M136.9,55.1
		l-0.4,3h1.3l0.3-3.8h-2.6v-0.8h3.5l-0.4,4.5h0.8c-0.1,1.5-0.1,2.7-0.2,3.6c0,1.1-0.5,1.7-1.5,1.7c-0.4,0-0.9,0-1.5,0
		c0-0.3-0.1-0.6-0.1-0.9c0.5,0.1,1,0.1,1.5,0.1c0.5,0,0.8-0.3,0.8-0.9c0.1-0.7,0.1-1.6,0.1-2.7h-3l0.4-3.8H136.9z M140.2,53.7h5.6
		v0.8H141v7.9h4.9v0.8h-5.8V53.7z M141.2,55.6l0.7-0.3c0.5,0.8,1,1.6,1.5,2.4c0.4-0.8,0.8-1.7,1.1-2.5l0.8,0.3
		c-0.4,1.1-0.9,2.1-1.4,3.1c0.5,0.9,1.1,1.9,1.6,2.8l-0.8,0.4c-0.4-0.8-0.8-1.5-1.3-2.3c-0.5,0.9-1,1.7-1.6,2.4l-0.7-0.4
		c0.7-0.9,1.3-1.8,1.8-2.8C142.4,57.5,141.8,56.6,141.2,55.6z"/>
	<path class="st1" d="M150.2,59c0.5,1,0.9,1.9,1.2,2.9c-0.3,0.1-0.6,0.3-0.8,0.4c-0.1-0.1-0.1-0.3-0.2-0.4c-1.4,0.1-2.6,0.3-3.7,0.4
		l-0.4-0.9c0.3-0.2,0.6-0.5,0.8-0.9c0.4-0.7,0.7-1.6,1.1-2.7h-1.8V57h5.2v0.8h-2.5c-0.6,1.5-1.1,2.7-1.6,3.6
		c0.8-0.1,1.7-0.1,2.7-0.2c-0.2-0.6-0.5-1.2-0.8-1.8L150.2,59z M146.9,54h4.3v0.8h-4.3V54z M151.3,55.3h1.6c0-0.7,0-1.5,0-2.2h0.9
		c0,0.7,0,1.5,0,2.2h2.9c-0.1,2.7-0.1,4.9-0.2,6.5c-0.1,1-0.5,1.5-1.4,1.5c-0.4,0-0.9,0-1.5,0c-0.1-0.3-0.1-0.6-0.2-0.9
		c0.5,0.1,0.9,0.1,1.4,0.1c0.5,0,0.8-0.3,0.8-0.9c0.1-1.8,0.2-3.6,0.2-5.5h-2c0,0.3,0,0.6,0,0.9c0,2.8-0.9,5-2.6,6.7
		c-0.2-0.2-0.4-0.5-0.6-0.7c1.5-1.3,2.3-3.3,2.3-6c0-0.3,0-0.6,0-0.9h-1.6V55.3z"/>
	<path class="st1" d="M157.4,62.1h3.4v-8.9h0.9v8.9h1.9v-8.9h0.9v8.9h3.5v0.8h-10.6V62.1z M158.6,55.3c0.6,1.4,1.2,2.8,1.7,4.4
		l-0.9,0.4c-0.5-1.5-1-3-1.6-4.5L158.6,55.3z M164.9,59.8c0.7-1.5,1.3-3,1.8-4.4l0.9,0.3c-0.7,1.7-1.3,3.2-1.9,4.4L164.9,59.8z"/>
	<path class="st1" d="M171.5,52.9l0.8,0.3c-0.2,0.3-0.3,0.5-0.5,0.8h5.8v0.7c-0.7,0.8-1.6,1.5-2.7,2.1c1.2,0.4,2.6,0.7,4.3,0.8
		c-0.2,0.3-0.4,0.6-0.6,0.9c-1.9-0.2-3.4-0.7-4.7-1.3c-1.4,0.6-3.1,1.1-5.2,1.4c-0.1-0.2-0.3-0.5-0.4-0.8c1.8-0.3,3.4-0.7,4.7-1.2
		c-0.8-0.5-1.5-1.1-2-1.8c-0.6,0.7-1.2,1.3-1.8,1.8c-0.2-0.2-0.4-0.4-0.6-0.6C169.8,55.3,170.8,54.1,171.5,52.9z M169.2,59.2h3.1
		c0.1-0.3,0.1-0.7,0.1-1.2h0.9c0,0.4-0.1,0.8-0.1,1.2h4.3c-0.1,1.3-0.1,2.2-0.2,2.7c-0.1,1-0.7,1.5-1.8,1.5c-0.4,0-1.1,0-1.9,0
		c0-0.3-0.1-0.6-0.2-0.9c0.8,0.1,1.5,0.1,2,0.1c0.6,0,0.9-0.3,1-0.9c0.1-0.5,0.1-1.1,0.1-1.7h-3.6c-0.4,1.7-1.7,3-4,3.7
		c-0.2-0.2-0.3-0.5-0.5-0.7c2.1-0.7,3.3-1.7,3.7-3h-3V59.2z M176.4,54.7h-4.8c0.6,0.7,1.3,1.3,2.2,1.7
		C174.9,55.9,175.7,55.4,176.4,54.7z"/>
	<path class="st1" d="M182.5,60.8l-0.9,2.9h-0.8l0.7-2.9H182.5z"/>
	<path class="st1" d="M190.3,57.4c1.5-1,2.7-2.5,3.8-4.3l0.8,0.4c-1.1,1.9-2.4,3.4-3.9,4.6C190.8,57.9,190.5,57.7,190.3,57.4z
		 M191.7,57.8h7.1c0,1.2-0.1,2.4-0.2,3.6c-0.1,1.3-0.7,2-1.9,2c-0.6,0-1.2,0-1.8-0.1c0-0.3-0.1-0.6-0.2-0.9c0.6,0.1,1.2,0.1,1.8,0.1
		c0.7,0,1.1-0.4,1.2-1.3c0.1-0.8,0.1-1.7,0.1-2.7h-3.3c-0.1,1.2-0.3,2.2-0.7,2.9c-0.5,1-1.5,1.7-2.7,2.2c-0.2-0.2-0.4-0.5-0.6-0.7
		c1.2-0.4,2-1.1,2.6-1.9c0.4-0.6,0.6-1.5,0.6-2.5h-2.1V57.8z M196.2,53.3L197,53c0.8,1.9,2.2,3.4,4.1,4.3c-0.3,0.3-0.6,0.6-0.7,0.8
		C198.4,56.9,197,55.4,196.2,53.3z"/>
	<path class="st1" d="M201.3,59.8c0.7-1.1,1.3-2.3,1.7-3.8h-1.5v-0.7h1.6v-2.1h0.8v2.1h1.5V56h-1.5v1.2l0.4-0.3
		c0.7,0.8,1.1,1.4,1.4,1.8l-0.7,0.5c-0.3-0.5-0.7-1.1-1.1-1.7v6h-0.8V58c-0.4,1.1-0.8,2-1.3,2.7C201.6,60.5,201.5,60.2,201.3,59.8z
		 M206,53.9c1.8,0,3.5-0.2,5.3-0.5l0.3,0.8c-1.5,0.2-3.1,0.4-4.8,0.4v2.4h5.2v0.8h-2v5.7h-0.8v-5.7h-2.4v0.4c0,2.3-0.6,4.1-1.8,5.4
		c-0.2-0.3-0.4-0.5-0.6-0.7c1-1.1,1.5-2.6,1.5-4.7V53.9z"/>
	<path class="st1" d="M214,58.6h4.4c-0.1,1.4-0.2,2.5-0.3,3.1c-0.1,1.1-0.7,1.7-1.8,1.7c-0.7,0-1.4,0-2.2-0.1
		c-0.1-0.3-0.1-0.6-0.2-1c0.8,0.1,1.5,0.1,2.3,0.1c0.7,0,1.1-0.4,1.1-1.1c0.1-0.4,0.1-1.1,0.2-2H213l0.6-3.3h3.9v-1.8H213v-0.8h5.4
		v3.8h-0.9v-0.4h-3.1L214,58.6z M221.1,53.1h0.9v10.5h-0.9V53.1z"/>
	<path class="st1" d="M226.4,53.2l-0.1,0.3c0.7,0.8,1.3,1.6,1.9,2.4l-0.6,0.6c-0.6-0.8-1.1-1.6-1.6-2.3c-0.6,1.2-1.2,2.4-2.1,3.5
		c-0.1-0.2-0.3-0.5-0.5-0.8c0.9-1.1,1.6-2.3,2.2-3.8H226.4z M224.1,60.6l0.6-0.5c0.3,0.4,0.7,0.8,1,1.2c0.4-0.7,0.7-1.5,1.1-2.4
		h-3.2v-0.7h4v0.7c-0.5,1.2-1,2.2-1.5,3c0.3,0.3,0.6,0.7,0.8,1l-0.7,0.5C225.6,62.5,224.9,61.5,224.1,60.6z M225.2,56.1l0.7-0.3
		c0.3,0.5,0.6,1,0.9,1.6l-0.7,0.4C225.9,57.3,225.6,56.8,225.2,56.1z M230.5,57h0.8v1.6c0,0.8-0.1,1.5-0.3,2.1c1,0.8,2,1.5,3,2.4
		l-0.6,0.7c-0.8-0.8-1.7-1.6-2.6-2.3c0,0.1-0.1,0.1-0.1,0.2c-0.5,0.8-1.3,1.5-2.6,2.1c-0.2-0.3-0.4-0.5-0.6-0.7
		c1.2-0.5,2-1.1,2.4-1.8c0.4-0.6,0.6-1.5,0.6-2.6V57z M228.3,55.8h1.9l0.3-1.5h-2.7v-0.8h6.2v0.8h-2.6l-0.3,1.5h2.4v5.1h-0.8v-4.4
		h-3.6V61h-0.8V55.8z"/>
	<path class="st1" d="M234.3,61.4c0.4-0.1,0.9-0.3,1.4-0.4v-4.4h-1.3v-0.8h1.3v-2.7h0.8v2.7h1.1v0.8h-1.1v4.2
		c0.4-0.1,0.8-0.3,1.3-0.4c0,0.3,0,0.6,0.1,0.9c-0.9,0.3-2,0.6-3.2,1L234.3,61.4z M238,54.5h1.8c-0.3-0.4-0.5-0.7-0.8-1.1l0.6-0.4
		c0.4,0.4,0.7,0.8,1,1.2l-0.5,0.4h1.8c0.4-0.5,0.7-1,1-1.6l0.8,0.4c-0.3,0.4-0.6,0.8-0.9,1.1h1.8v4h-0.8v-0.3h-5.1v0.3H238V54.5z
		 M238.4,59.1h5.8v4.5h-0.8v-0.5h-4.2v0.5h-0.8V59.1z M238.7,57.6h2.2v-2.4h-2.2V57.6z M239.1,56l0.5-0.4c0.3,0.4,0.6,0.8,0.8,1.2
		l-0.6,0.4C239.7,56.8,239.4,56.4,239.1,56z M243.4,59.7h-4.2v1h4.2V59.7z M239.2,62.4h4.2v-1h-4.2V62.4z M243.8,55.1h-2.2v2.4h2.2
		V55.1z M243.4,56c-0.4,0.6-0.7,1-0.8,1.2l-0.6-0.3c0.3-0.4,0.5-0.8,0.8-1.3L243.4,56z"/>
	<path class="st1" d="M245.5,57.4h1.9V53h0.9v4.4h7.6v0.8h-4.7c0.9,2,2.5,3.3,4.9,4.1c-0.2,0.3-0.5,0.6-0.7,0.9
		c-2.6-1-4.3-2.6-5.2-4.9h-2v3.9c0.8-0.3,1.7-0.7,2.6-1.1c0,0.3,0,0.7,0,1c-0.9,0.4-1.7,0.7-2.4,1.1c-0.3,0.2-0.6,0.3-0.8,0.5
		l-0.6-0.8c0.2-0.2,0.4-0.5,0.4-0.8v-3.7h-1.9V57.4z M248.9,56.1c1.8-0.6,3.5-1.5,5.1-2.7l0.6,0.7c-1.7,1.2-3.4,2.2-5.3,2.8
		C249.2,56.7,249.1,56.4,248.9,56.1z"/>
</g>
<line class="st2" x1="40.5" y1="20.2" x2="18.1" y2="49.5"/>
<line class="st3" x1="52.8" y1="41.1" x2="20.2" y2="54"/>
<line class="st2" x1="61" y1="60.5" x2="21.1" y2="58.3"/>
<line class="st2" x1="65.7" y1="53.4" x2="50.5" y2="21.2"/>
<line class="st3" x1="75.2" y1="28.8" x2="52.8" y2="18.3"/>
<line class="st3" x1="79.1" y1="34.6" x2="71.3" y2="53.9"/>
<circle class="st4" cx="14" cy="56.4" r="6.6"/>
<circle class="st4" cx="46.1" cy="14.9" r="6.6"/>
<circle class="st4" cx="68.7" cy="60" r="6.6"/>
<circle class="st5" cx="79.1" cy="30.9" r="3.7"/>
<line class="st3" x1="75.2" y1="32" x2="64.8" y2="36.2"/>
</svg>
